<?xml version="1.0" encoding="UTF-8"?>
<svg width="275px" height="438px" viewBox="0 0 275 438" version="1.1" xmlns="http://www.w3.org/2000/svg" xmlns:xlink="http://www.w3.org/1999/xlink">
    <title>logo_white</title>
    <g id="Page-1" stroke="none" stroke-width="1" fill="none" fill-rule="evenodd">
        <g id="Artboard" transform="translate(-113.000000, 0.000000)" fill-rule="nonzero">
            <g id="logo_title_white_edge" transform="translate(-0.000000, 0.000000)">
                <g id="Group" transform="translate(0.000000, 0.000000)">
                    <g id="Group-2" transform="translate(113.047395, 0.000000)">
                        <path d="M208.203935,149.85149 C215.189209,161.905227 219.252073,175.813385 219.252073,190.720078 C219.252073,235.725452 182.75758,272.243283 137.780968,272.243283 C92.8043559,272.243283 56.3098626,235.725452 56.3098626,190.720078 C56.3098626,175.813385 60.3727261,161.905227 67.3580002,149.85149 L35.9955451,118.468979 C21.5260488,138.867611 12.9726519,163.759648 12.9726519,190.720078 C12.9726519,259.690278 68.8548447,315.608207 137.780968,315.608207 C206.707091,315.608207 262.589284,259.690278 262.589284,190.720078 C262.589284,163.830972 254.035887,138.867611 239.56639,118.468979 L208.203935,149.85149 L208.203935,149.85149 Z" id="Path" fill="#FFFFFF"></path>
                        <ellipse id="Oval" fill="#1DA24A" cx="137.780968" cy="190.720078" rx="33.5008044" ry="33.5222277"></ellipse>
                        <path d="M137.780968,65.8319492 C101.286474,65.8319492 68.4271749,81.5232047 45.6181166,106.486566 L69.4250712,130.308745 C86.1754733,111.407914 110.552654,99.3541768 137.780968,99.3541768 C165.009281,99.3541768 189.386462,111.33659 206.136864,130.308745 L229.943819,106.486566 C207.134761,81.5232047 174.275461,65.8319492 137.780968,65.8319492 Z" id="Path" fill="#6EBE45"></path>
                        <path d="M137.495854,0 C83.0392278,0 34.0710308,23.3942355 0,60.6966292 L26.1591387,87.5857352 C53.387452,56.7738153 93.0894691,37.2310699 137.424576,37.2310699 C181.759683,37.2310699 221.4617,56.7738153 248.690014,87.5857352 L274.920431,60.6966292 C240.8494,23.3942355 191.881203,0 137.424576,0 L137.495854,0 Z" id="Path" fill="#8EC73F"></path>
                        <path d="M57.9492637,438 C65.5760426,400.911578 98.4353422,373.023937 137.780968,373.023937 C177.126593,373.023937 209.914615,400.911578 217.612672,438 L261.520109,438 C253.46566,376.875427 201.147383,329.659013 137.852246,329.659013 C74.5571093,329.659013 22.2388318,376.875427 14.1843831,438 L58.0918203,438 L57.9492637,438 Z" id="Path" fill="#FFFFFF"></path>
                    </g>
                </g>
            </g>
        </g>
    </g>
</svg>