<?xml version="1.0" encoding="UTF-8"?>
<svg width="776px" height="546px" viewBox="0 0 776 546" version="1.1" xmlns="http://www.w3.org/2000/svg" xmlns:xlink="http://www.w3.org/1999/xlink">
    <title>logo_white</title>
    <g id="logo_white" stroke="none" stroke-width="1" fill="none" fill-rule="evenodd">
        <g id="Group" fill-rule="nonzero">
            <g>
                <g transform="translate(0.000000, 0.000000)">
                    <g transform="translate(113.047395, 0.000000)">
                        <path d="M208.203935,149.85149 C215.189209,161.905227 219.252073,175.813385 219.252073,190.720078 C219.252073,235.725452 182.75758,272.243283 137.780968,272.243283 C92.8043559,272.243283 56.3098626,235.725452 56.3098626,190.720078 C56.3098626,175.813385 60.3727261,161.905227 67.3580002,149.85149 L35.9955451,118.468979 C21.5260488,138.867611 12.9726519,163.759648 12.9726519,190.720078 C12.9726519,259.690278 68.8548447,315.608207 137.780968,315.608207 C206.707091,315.608207 262.589284,259.690278 262.589284,190.720078 C262.589284,163.830972 254.035887,138.867611 239.56639,118.468979 L208.203935,149.85149 L208.203935,149.85149 Z" id="Path" fill="#FFFFFF"></path>
                        <ellipse id="Oval" fill="#1DA24A" cx="137.780968" cy="190.720078" rx="33.5008044" ry="33.5222277"></ellipse>
                        <path d="M137.780968,65.8319492 C101.286474,65.8319492 68.4271749,81.5232047 45.6181166,106.486566 L69.4250712,130.308745 C86.1754733,111.407914 110.552654,99.3541768 137.780968,99.3541768 C165.009281,99.3541768 189.386462,111.33659 206.136864,130.308745 L229.943819,106.486566 C207.134761,81.5232047 174.275461,65.8319492 137.780968,65.8319492 Z" id="Path" fill="#6EBE45"></path>
                        <path d="M137.495854,0 C83.0392278,0 34.0710308,23.3942355 0,60.6966292 L26.1591387,87.5857352 C53.387452,56.7738153 93.0894691,37.2310699 137.424576,37.2310699 C181.759683,37.2310699 221.4617,56.7738153 248.690014,87.5857352 L274.920431,60.6966292 C240.8494,23.3942355 191.881203,0 137.424576,0 L137.495854,0 Z" id="Path" fill="#8EC73F"></path>
                    </g>
                    <polygon id="Path" fill="#FFFFFF" points="69.4963495 436.787494 0 436.787494 0 115.5447 69.4963495 115.5447"></polygon>
                    <polygon id="Path" fill="#FFFFFF" points="402.294765 115.5447 576 115.5447 576 174.600879 523.895557 174.600879 523.895557 436.787494 454.399208 436.787494 454.399208 174.600879 402.294765 174.600879"></polygon>
                    <path d="M170.996659,438 C178.623438,400.911578 211.482737,373.023937 250.828363,373.023937 C290.173988,373.023937 322.96201,400.911578 330.660067,438 L374.567504,438 C366.513055,376.875427 314.194778,329.659013 250.899641,329.659013 C187.604504,329.659013 135.286227,376.875427 127.231778,438 L171.139215,438 L170.996659,438 Z" id="Path" fill="#FFFFFF"></path>
                </g>
                <g transform="translate(573.000000, 312.000000)" fill="#FFFFFF">
                    <polygon id="Path" points="2.03083668e-13 0.0713053479 77.813094 0.0713053479 77.813094 23.5307648 28.0813094 23.5307648 28.0813094 48.4163312 70.3819078 48.4163312 70.3819078 71.8757907 28.0813094 71.8757907 28.0813094 100.39793 79.6708905 100.39793 79.6708905 123.857389 0 123.857389 0 0"></polygon>
                    <path d="M104.393875,0.0713053479 L149.1239,0.0713053479 C175.49032,0.0713053479 197.069342,9.19838988 197.069342,38.6474986 C197.069342,68.0966072 175.49032,79.3628522 149.1239,79.3628522 L132.475185,79.3628522 L132.475185,123.928695 L104.393875,123.928695 L104.393875,0.0713053479 L104.393875,0.0713053479 Z M146.837381,57.1155837 C161.6283,57.1155837 169.559662,50.8407131 169.559662,38.6474986 C169.559662,26.4542841 161.6283,22.3185739 146.837381,22.3185739 L132.475185,22.3185739 L132.475185,57.1155837 L146.837381,57.1155837 L146.837381,57.1155837 Z M143.979233,72.0184014 L163.414643,54.1207591 L203,124 L171.560366,124 L143.907779,72.0184014 L143.979233,72.0184014 Z" id="Shape"></path>
                </g>
                <g id="Your-Ultimate-IoT-pl" transform="translate(1.364122, 484.064853)" fill="#FFFFFF">
                    <polygon id="Path" points="1.42108547e-14 2.16845497 9.14583197 2.16845497 20.0926189 21.9810088 20.5472123 21.9810088 31.4939992 2.16845497 40.6398312 2.16845497 24.3595126 30.2350726 24.3595126 46.9351473 16.2803186 46.9351473 16.2803186 30.2350726"></polygon>
                    <path d="M54.4893794,47.5997895 C51.2135289,47.5997895 48.3726332,46.8769712 45.9666922,45.4313346 C43.5607511,43.9856979 41.6983754,41.9644479 40.379565,39.3675844 C39.0607545,36.770721 38.4013493,33.7440829 38.4013493,30.2876702 C38.4013493,26.8134973 39.0607545,23.7736529 40.379565,21.168137 C41.6983754,18.5626212 43.5607511,16.5370449 45.9666922,15.0914083 C48.3726332,13.6457717 51.2135289,12.9229533 54.4893794,12.9229533 C57.7652298,12.9229533 60.6061256,13.6457717 63.0120666,15.0914083 C65.4180076,16.5370449 67.2803834,18.5626212 68.5991938,21.168137 C69.9180042,23.7736529 70.5774094,26.8134973 70.5774094,30.2876702 C70.5774094,33.7440829 69.9180042,36.770721 68.5991938,39.3675844 C67.2803834,41.9644479 65.4180076,43.9856979 63.0120666,45.4313346 C60.6061256,46.8769712 57.7652298,47.5997895 54.4893794,47.5997895 Z M54.5242167,41.2518758 C56.3139008,41.2518758 57.8032549,40.7607943 58.9922791,39.7786312 C60.1813033,38.796468 61.0716483,37.4747545 61.6633142,35.8134905 C62.2549801,34.1522265 62.5508131,32.2985601 62.5508131,30.2524913 C62.5508131,28.2007301 62.2549801,26.3413144 61.6633142,24.6742442 C61.0716483,23.007174 60.1813033,21.6781742 58.9922791,20.6872448 C57.8032549,19.6963155 56.3139008,19.2008508 54.5242167,19.2008508 C52.7115355,19.2008508 51.2048196,19.6963155 50.0040691,20.6872448 C48.8033186,21.6781742 47.9071104,23.007174 47.3154445,24.6742442 C46.7237786,26.3413144 46.4279457,28.2007301 46.4279457,30.2524913 C46.4279457,32.2985601 46.7237786,34.1522265 47.3154445,35.8134905 C47.9071104,37.4747545 48.8033186,38.796468 50.0040691,39.7786312 C51.2048196,40.7607943 52.7115355,41.2518758 54.5242167,41.2518758 Z" id="Shape"></path>
                    <path d="M98.6614885,32.8232837 L98.6614885,13.3601281 L106.583231,13.3601281 L106.583231,46.9351473 L98.9063747,46.9351473 L98.9063747,40.9721523 L98.5566349,40.9721523 C97.7929453,42.8520037 96.5484204,44.3886615 94.8230602,45.5821257 C93.0977,46.7755899 90.9730195,47.3723221 88.4490185,47.3723221 C86.2515324,47.3723221 84.311968,46.8790205 82.6303253,45.8924173 C80.9486826,44.9058141 79.6342553,43.4719038 78.6870434,41.5906863 C77.7398315,39.7094687 77.2632655,37.4222707 77.2573454,34.7290923 L77.2573454,13.3601281 L85.1790881,13.3601281 L85.1790881,33.505003 C85.1850082,35.6385068 85.7686479,37.3318758 86.9300071,38.58511 C88.0913663,39.8383442 89.6178917,40.4649613 91.5095831,40.4649613 C92.6810748,40.4649613 93.8140291,40.1822208 94.9084459,39.6167399 C96.0028627,39.0512589 96.9034541,38.2031513 97.6102199,37.0724171 C98.3169857,35.9416829 98.6674086,34.5253051 98.6614885,32.8232837 Z" id="Path"></path>
                    <path d="M114.697092,46.9351473 L114.697092,13.3601281 L122.37429,13.3601281 L122.37429,18.9559646 L122.72403,18.9559646 C123.336074,17.0148633 124.38962,15.5153198 125.884666,14.4573342 C127.379713,13.3993486 129.08902,12.8703557 131.012589,12.8703557 C131.449764,12.8703557 131.942326,12.8907914 132.490274,12.9316627 C133.038222,12.972534 133.495833,13.0308808 133.863105,13.1067033 L133.863105,20.372684 C133.519058,20.2647565 132.986365,20.1619521 132.265027,20.0642709 C131.543688,19.9665896 130.852292,19.917749 130.190837,19.917749 C128.739281,19.917749 127.443012,20.2274144 126.302032,20.8467453 C125.161051,21.4660762 124.26194,22.32295 123.604698,23.4173669 C122.947456,24.5117837 122.618834,25.7700842 122.618834,27.1922682 L122.618834,46.9351473 L114.697092,46.9351473 Z" id="Path"></path>
                    <path d="M182.966334,2.16845497 L191.080365,2.16845497 L191.080365,31.4243245 C191.080365,34.6243525 190.324759,37.4404294 188.813546,39.8725554 C187.302333,42.3046814 185.184199,44.2034884 182.459143,45.5689763 C179.734087,46.9344642 176.551478,47.6172082 172.911315,47.6172082 C169.25954,47.6172082 166.071124,46.9344642 163.346069,45.5689763 C160.621013,44.2034884 158.505782,42.3046814 157.000375,39.8725554 C155.494968,37.4404294 154.742265,34.6243525 154.742265,31.4243245 L154.742265,2.16845497 L162.856638,2.16845497 L162.856638,30.7422636 C162.856638,32.6075425 163.267571,34.2665864 164.089436,35.7193955 C164.911302,37.1722045 166.074881,38.3117619 167.580174,39.1380677 C169.085467,39.9643735 170.862514,40.3775264 172.911315,40.3775264 C174.966036,40.3775264 176.746783,39.9643735 178.253556,39.1380677 C179.760329,38.3117619 180.922485,37.1722045 181.740025,35.7193955 C182.557564,34.2665864 182.966334,32.6075425 182.966334,30.7422636 L182.966334,2.16845497 Z" id="Path"></path>
                    <polygon id="Path" points="207.465644 2.16845497 207.465644 46.9351473 199.543901 46.9351473 199.543901 2.16845497"></polygon>
                    <path d="M232.349649,13.3601281 L232.349649,19.4805743 L213.061705,19.4805743 L213.061705,13.3601281 L232.349649,13.3601281 Z M217.818029,5.31611303 L225.739772,5.31611303 L225.739772,36.8452912 C225.739772,37.906123 225.900809,38.7155793 226.222884,39.2736602 C226.544959,39.8317411 226.976271,40.2135289 227.516819,40.4190238 C228.057367,40.6245187 228.659963,40.7272662 229.324605,40.7272662 C229.811189,40.7272662 230.261457,40.6900949 230.675406,40.6157525 C231.089356,40.54141 231.408471,40.47942 231.632751,40.4297824 L232.961694,46.6028262 C232.536359,46.7455911 231.936041,46.9051485 231.160739,47.0814984 C230.385437,47.2578483 229.435265,47.3605958 228.310223,47.3897407 C226.328364,47.4480307 224.543974,47.1449115 222.957052,46.4803832 C221.370131,45.8158548 220.113994,44.7870711 219.18864,43.394032 C218.263287,42.000993 217.806417,40.249334 217.818029,38.1390551 L217.818029,5.31611303 Z" id="Shape"></path>
                    <path d="M238.977212,46.9351473 L238.977212,13.3601281 L246.898954,13.3601281 L246.898954,46.9351473 L238.977212,46.9351473 Z M242.968822,8.60380361 C241.709667,8.60380361 240.630563,8.18251062 239.731509,7.33992464 C238.832454,6.49733865 238.382927,5.48449361 238.382927,4.30138949 C238.382927,3.11851307 238.83291,2.10589572 239.732875,1.26353743 C240.63284,0.421179144 241.710009,-5.68434189e-14 242.964382,-5.68434189e-14 C244.226496,-5.68434189e-14 245.305657,0.421236068 246.201866,1.2637082 C247.098074,2.10618034 247.546178,3.11896847 247.546178,4.30207258 C247.546178,5.48517669 247.098074,6.49790789 246.201866,7.34026618 C245.305657,8.18262447 244.227976,8.60380361 242.968822,8.60380361 Z" id="Shape"></path>
                    <path d="M255.012868,46.9351473 L255.012868,13.3601281 L262.584871,13.3601281 L262.584871,19.0608182 L262.987208,19.0608182 C263.686688,17.1461295 264.842298,15.6444799 266.454038,14.5558693 C268.065779,13.4672586 269.99373,12.9229533 272.237894,12.9229533 C274.511203,12.9229533 276.432551,13.4715848 278.00194,14.5688479 C279.571329,15.6661109 280.675253,17.1634344 281.31371,19.0608182 L281.66345,19.0608182 C282.406647,17.1984994 283.664207,15.7099422 285.436131,14.5951467 C287.208055,13.4803511 289.31378,12.9229533 291.753306,12.9229533 C294.842674,12.9229533 297.360812,13.8985702 299.307719,15.849804 C301.254627,17.8010378 302.228081,20.6492198 302.228081,24.3943499 L302.228081,46.9351473 L294.306338,46.9351473 L294.306338,25.6184392 C294.306338,23.5434531 293.751103,22.0192616 292.640634,21.0458647 C291.530164,20.0724679 290.173443,19.5857695 288.570469,19.5857695 C286.65874,19.5857695 285.1695,20.1795415 284.102748,21.3670857 C283.035996,22.5546299 282.50262,24.0942477 282.50262,25.9859392 L282.50262,46.9351473 L274.738329,46.9351473 L274.738329,25.3038783 C274.738329,23.5697519 274.218102,22.1832021 273.177649,21.1442291 C272.137196,20.105256 270.780531,19.5857695 269.107655,19.5857695 C267.971,19.5857695 266.935614,19.8757393 266.001494,20.4556789 C265.067375,21.0356185 264.322698,21.8450748 263.767463,22.8840479 C263.212228,23.9230209 262.934611,25.1317408 262.934611,26.5102073 L262.934611,46.9351473 L255.012868,46.9351473 Z" id="Path"></path>
                    <path d="M319.942302,47.6172082 C317.808799,47.6172082 315.893939,47.2332003 314.197724,46.4651845 C312.501509,45.6971687 311.16084,44.5634175 310.175716,43.0639309 C309.190593,41.5644444 308.698032,39.712998 308.698032,37.5095918 C308.698032,35.6210881 309.050675,34.0552853 309.75596,32.8121835 C310.461246,31.5690817 311.418648,30.5759323 312.628164,29.8327353 C313.837681,29.0895382 315.202429,28.5278142 316.722408,28.1475633 C318.242387,27.7673124 319.816956,27.489752 321.446115,27.3148821 C323.422054,27.099027 325.021385,26.9073077 326.244108,26.7397241 C327.466831,26.5721404 328.357233,26.3105756 328.915314,25.9550296 C329.473395,25.5994836 329.752435,25.0443058 329.752435,24.2894963 L329.752435,24.1494638 C329.752435,22.5057323 329.26642,21.2321194 328.294389,20.328625 C327.322358,19.4251305 325.91395,18.9733833 324.069164,18.9733833 C322.131022,18.9733833 320.598008,19.3974655 319.47012,20.2456301 C318.342232,21.0937946 317.578713,22.0920102 317.179563,23.240277 L309.799849,22.1910576 C310.382748,20.1509089 311.345273,18.4422843 312.687422,17.0651839 C314.029571,15.6880835 315.668976,14.6534366 317.605638,13.9612433 C319.542299,13.26905 321.685195,12.9229533 324.034326,12.9229533 C325.64322,12.9229533 327.251317,13.1116557 328.858618,13.4890605 C330.465918,13.8664652 331.933356,14.4909192 333.260933,15.3624225 C334.58851,16.2339257 335.655945,17.4128744 336.463238,18.8992685 C337.270531,20.3856626 337.674178,22.2406952 337.674178,24.4643662 L337.674178,46.9351473 L330.067337,46.9351473 L330.067337,42.3185139 L329.805033,42.3185139 C329.326873,43.2570734 328.652098,44.1299997 327.780709,44.937293 C326.909319,45.7445862 325.823669,46.3930621 324.523757,46.8827205 C323.223845,47.372379 321.696694,47.6172082 319.942302,47.6172082 Z M321.988144,41.7939042 C323.579505,41.7939042 324.958826,41.4776925 326.126105,40.8452692 C327.293384,40.2128458 328.195399,39.3735045 328.832148,38.3272452 C329.468898,37.2809859 329.787272,36.1340853 329.787272,34.8865435 L329.787272,30.9345522 C329.527928,31.1444872 329.106065,31.3361496 328.521686,31.5095394 C327.937306,31.6829293 327.278641,31.8359405 326.54569,31.9685729 C325.812739,32.1012053 325.088498,32.2177853 324.372966,32.3183127 C323.657434,32.4188401 323.037363,32.5055351 322.512753,32.5783975 C321.335341,32.7416549 320.281056,33.0046998 319.349897,33.367532 C318.418737,33.7303643 317.684306,34.2360184 317.146604,34.8844942 C316.608902,35.5329701 316.340051,36.3672452 316.340051,37.3873195 C316.340051,38.8356885 316.871207,39.9322115 317.933519,40.6768886 C318.995831,41.4215657 320.347372,41.7939042 321.988144,41.7939042 Z" id="Shape"></path>
                    <path d="M362.418171,13.3601281 L362.418171,19.4805743 L343.130227,19.4805743 L343.130227,13.3601281 L362.418171,13.3601281 Z M347.886552,5.31611303 L355.808294,5.31611303 L355.808294,36.8452912 C355.808294,37.906123 355.969332,38.7155793 356.291407,39.2736602 C356.613482,39.8317411 357.044793,40.2135289 357.585341,40.4190238 C358.12589,40.6245187 358.728485,40.7272662 359.393127,40.7272662 C359.879712,40.7272662 360.329979,40.6900949 360.743929,40.6157525 C361.157879,40.54141 361.476993,40.47942 361.701273,40.4297824 L363.030216,46.6028262 C362.604882,46.7455911 362.004563,46.9051485 361.229261,47.0814984 C360.453959,47.2578483 359.503787,47.3605958 358.378745,47.3897407 C356.396886,47.4480307 354.612496,47.1449115 353.025575,46.4803832 C351.438653,45.8158548 350.182516,44.7870711 349.257163,43.394032 C348.33181,42.000993 347.874939,40.249334 347.886552,38.1390551 L347.886552,5.31611303 Z" id="Shape"></path>
                    <path d="M383.577695,47.5997895 C380.20257,47.5997895 377.296041,46.8937068 374.858109,45.4815414 C372.420176,44.0693759 370.544708,42.0699846 369.231704,39.4833674 C367.9187,36.8967503 367.262198,33.8489366 367.262198,30.3399263 C367.262198,26.8892059 367.920123,23.8559647 369.235973,21.2402026 C370.551824,18.6244404 372.399627,16.5842917 374.779383,15.1197563 C377.159139,13.655221 379.951991,12.9229533 383.157939,12.9229533 C385.221313,12.9229533 387.17545,13.2552175 389.02035,13.9197459 C390.86525,14.5842742 392.498849,15.6065117 393.921147,16.9864583 C395.343445,18.3664049 396.461143,20.1245532 397.274243,22.2609031 C398.087342,24.3972531 398.493892,26.9387296 398.493892,29.8853329 L398.493892,32.3160927 L370.969303,32.3160927 L370.969303,26.982561 L390.90447,26.982561 C390.898778,25.4611018 390.57602,24.1072833 389.936197,22.9211053 C389.296373,21.7349273 388.404548,20.8008647 387.260722,20.1189177 C386.116895,19.4369707 384.784252,19.0959971 383.262793,19.0959971 C381.639554,19.0959971 380.21663,19.4829082 378.994021,20.2567302 C377.771411,21.0305522 376.821979,22.0484066 376.145725,23.3102932 C375.46947,24.5721799 375.125537,25.9536065 375.113924,27.4545731 L375.113924,32.1063854 C375.113924,34.0588715 375.468787,35.730951 376.178513,37.1226239 C376.888239,38.5142968 377.884291,39.5795687 379.166671,40.3184395 C380.44905,41.0573103 381.954343,41.4267457 383.682549,41.4267457 C384.827856,41.4267457 385.869049,41.2642283 386.806128,40.9391934 C387.743208,40.6141586 388.551241,40.1288833 389.230228,39.4833674 C389.909215,38.8378516 390.426538,38.0400077 390.782198,37.0898358 L398.179331,37.9293479 C397.713012,39.8761416 396.825513,41.5745199 395.516835,43.0244828 C394.208157,44.4744456 392.54251,45.5994875 390.519893,46.3996083 C388.497277,47.1997291 386.183211,47.5997895 383.577695,47.5997895 Z" id="Path"></path>
                    <polygon id="Path" points="428.921509 2.16845497 428.921509 46.9351473 420.807137 46.9351473 420.807137 2.16845497"></polygon>
                    <path d="M452.039077,47.5997895 C448.763226,47.5997895 445.92233,46.8769712 443.516389,45.4313346 C441.110448,43.9856979 439.248073,41.9644479 437.929262,39.3675844 C436.610452,36.770721 435.951046,33.7440829 435.951046,30.2876702 C435.951046,26.8134973 436.610452,23.7736529 437.929262,21.168137 C439.248073,18.5626212 441.110448,16.5370449 443.516389,15.0914083 C445.92233,13.6457717 448.763226,12.9229533 452.039077,12.9229533 C455.314927,12.9229533 458.155823,13.6457717 460.561764,15.0914083 C462.967705,16.5370449 464.83008,18.5626212 466.148891,21.168137 C467.467701,23.7736529 468.127107,26.8134973 468.127107,30.2876702 C468.127107,33.7440829 467.467701,36.770721 466.148891,39.3675844 C464.83008,41.9644479 462.967705,43.9856979 460.561764,45.4313346 C458.155823,46.8769712 455.314927,47.5997895 452.039077,47.5997895 Z M452.073914,41.2518758 C453.863598,41.2518758 455.352952,40.7607943 456.541976,39.7786312 C457.731,38.796468 458.621345,37.4747545 459.213011,35.8134905 C459.804677,34.1522265 460.10051,32.2985601 460.10051,30.2524913 C460.10051,28.2007301 459.804677,26.3413144 459.213011,24.6742442 C458.621345,23.007174 457.731,21.6781742 456.541976,20.6872448 C455.352952,19.6963155 453.863598,19.2008508 452.073914,19.2008508 C450.261233,19.2008508 448.754517,19.6963155 447.553766,20.6872448 C446.353016,21.6781742 445.456808,23.007174 444.865142,24.6742442 C444.273476,26.3413144 443.977643,28.2007301 443.977643,30.2524913 C443.977643,32.2985601 444.273476,34.1522265 444.865142,35.8134905 C445.456808,37.4747545 446.353016,38.796468 447.553766,39.7786312 C448.754517,40.7607943 450.261233,41.2518758 452.073914,41.2518758 Z" id="Shape"></path>
                    <polygon id="Path" points="470.750198 8.97096208 470.750198 2.16845497 506.458835 2.16845497 506.458835 8.97096208 492.626694 8.97096208 492.626694 46.9351473 484.582338 46.9351473 484.582338 8.97096208"></polygon>
                    <path d="M528.247224,59.5257796 L528.247224,13.3601281 L536.029276,13.3601281 L536.029276,18.903367 L536.501288,18.903367 C536.903625,18.0991477 537.477075,17.2328814 538.221639,16.3045682 C538.966202,15.376255 539.971704,14.5805742 541.238144,13.9175258 C542.504585,13.2544775 544.125774,12.9229533 546.101713,12.9229533 C548.684004,12.9229533 551.022889,13.5830986 553.118368,14.903389 C555.213846,16.2236795 556.876533,18.169107 558.106429,20.7396717 C559.336324,23.3102363 559.951272,26.4637575 559.951272,30.2002353 C559.951272,33.8841155 559.347994,37.016461 558.141437,39.597272 C556.93488,42.1780829 555.288189,44.1453692 553.201362,45.4991308 C551.114536,46.8528925 548.753793,47.5297733 546.119132,47.5297733 C544.195563,47.5297733 542.598452,47.2099185 541.327799,46.5702089 C540.057146,45.9304993 539.038552,45.1537742 538.272016,44.2400334 C537.50548,43.3262927 536.915238,42.4584326 536.501288,41.636453 L536.168967,41.636453 L536.168967,59.5257796 L528.247224,59.5257796 Z M536.011857,30.1476377 C536.011857,32.3218989 536.320782,34.2257721 536.938633,35.8592572 C537.556484,37.4927424 538.452635,38.7648753 539.627087,39.675656 C540.801539,40.5864367 542.231123,41.041827 543.915839,41.041827 C545.652698,41.041827 547.112054,40.5718642 548.293905,39.6319385 C549.475757,38.6920129 550.370542,37.4009243 550.978261,35.7586729 C551.585979,34.1164215 551.889838,32.2460764 551.889838,30.1476377 C551.889838,28.0667315 551.590362,26.2182452 550.99141,24.6021787 C550.392458,22.9861122 549.502056,21.7168824 548.320204,20.7944893 C547.138352,19.8720961 545.670231,19.4108996 543.915839,19.4108996 C542.213818,19.4108996 540.775525,19.8546205 539.600959,20.7420625 C538.426393,21.6295044 537.534568,22.8768755 536.925484,24.4841757 C536.316399,26.0914759 536.011857,27.9792966 536.011857,30.1476377 Z" id="Shape"></path>
                    <polygon id="Path" points="574.622914 2.16845497 574.622914 46.9351473 566.701171 46.9351473 566.701171 2.16845497"></polygon>
                    <path d="M592.407269,47.6172082 C590.273765,47.6172082 588.358906,47.2332003 586.662691,46.4651845 C584.966475,45.6971687 583.625806,44.5634175 582.640683,43.0639309 C581.65556,41.5644444 581.162998,39.712998 581.162998,37.5095918 C581.162998,35.6210881 581.515641,34.0552853 582.220927,32.8121835 C582.926213,31.5690817 583.883614,30.5759323 585.093131,29.8327353 C586.302648,29.0895382 587.667396,28.5278142 589.187375,28.1475633 C590.707354,27.7673124 592.281923,27.489752 593.911082,27.3148821 C595.887021,27.099027 597.486351,26.9073077 598.709075,26.7397241 C599.931798,26.5721404 600.8222,26.3105756 601.38028,25.9550296 C601.938361,25.5994836 602.217402,25.0443058 602.217402,24.2894963 L602.217402,24.1494638 C602.217402,22.5057323 601.731386,21.2321194 600.759356,20.328625 C599.787325,19.4251305 598.378917,18.9733833 596.53413,18.9733833 C594.595989,18.9733833 593.062974,19.3974655 591.935086,20.2456301 C590.807198,21.0937946 590.043679,22.0920102 589.64453,23.240277 L582.264815,22.1910576 C582.847715,20.1509089 583.810239,18.4422843 585.152389,17.0651839 C586.494538,15.6880835 588.133943,14.6534366 590.070604,13.9612433 C592.007266,13.26905 594.150162,12.9229533 596.499293,12.9229533 C598.108187,12.9229533 599.716284,13.1116557 601.323584,13.4890605 C602.930885,13.8664652 604.398323,14.4909192 605.7259,15.3624225 C607.053476,16.2339257 608.120911,17.4128744 608.928205,18.8992685 C609.735498,20.3856626 610.139144,22.2406952 610.139144,24.4643662 L610.139144,46.9351473 L602.532304,46.9351473 L602.532304,42.3185139 L602.269999,42.3185139 C601.791839,43.2570734 601.117065,44.1299997 600.245675,44.937293 C599.374286,45.7445862 598.288635,46.3930621 596.988724,46.8827205 C595.688812,47.372379 594.16166,47.6172082 592.407269,47.6172082 Z M594.45311,41.7939042 C596.044472,41.7939042 597.423792,41.4776925 598.591071,40.8452692 C599.758351,40.2128458 600.660365,39.3735045 601.297115,38.3272452 C601.933864,37.2809859 602.252239,36.1340853 602.252239,34.8865435 L602.252239,30.9345522 C601.992894,31.1444872 601.571032,31.3361496 600.986652,31.5095394 C600.402273,31.6829293 599.743608,31.8359405 599.010657,31.9685729 C598.277706,32.1012053 597.553465,32.2177853 596.837933,32.3183127 C596.1224,32.4188401 595.50233,32.5055351 594.97772,32.5783975 C593.800308,32.7416549 592.746023,33.0046998 591.814863,33.367532 C590.883704,33.7303643 590.149273,34.2360184 589.611571,34.8844942 C589.073869,35.5329701 588.805018,36.3672452 588.805018,37.3873195 C588.805018,38.8356885 589.336174,39.9322115 590.398485,40.6768886 C591.460797,41.4215657 592.812339,41.7939042 594.45311,41.7939042 Z" id="Shape"></path>
                    <path d="M634.883138,13.3601281 L634.883138,19.4805743 L615.595194,19.4805743 L615.595194,13.3601281 L634.883138,13.3601281 Z M620.351518,5.31611303 L628.273261,5.31611303 L628.273261,36.8452912 C628.273261,37.906123 628.434299,38.7155793 628.756373,39.2736602 C629.078448,39.8317411 629.50976,40.2135289 630.050308,40.4190238 C630.590856,40.6245187 631.193452,40.7272662 631.858094,40.7272662 C632.344678,40.7272662 632.794946,40.6900949 633.208896,40.6157525 C633.622845,40.54141 633.94196,40.47942 634.16624,40.4297824 L635.495183,46.6028262 C635.069848,46.7455911 634.46953,46.9051485 633.694228,47.0814984 C632.918926,47.2578483 631.968754,47.3605958 630.843712,47.3897407 C628.861853,47.4480307 627.077463,47.1449115 625.490541,46.4803832 C623.90362,45.8158548 622.647483,44.7870711 621.722129,43.394032 C620.796776,42.000993 620.339906,40.249334 620.351518,38.1390551 L620.351518,5.31611303 Z" id="Shape"></path>
                    <path d="M658.525678,13.3601281 L658.525678,19.4805743 L638.677945,19.4805743 L638.677945,13.3601281 L658.525678,13.3601281 Z M643.644318,46.9351473 L643.644318,10.1950513 C643.644318,7.93335518 644.113541,6.05350384 645.051987,4.5554973 C645.990432,3.05749077 647.253856,1.93540896 648.842257,1.18925188 C650.430659,0.443094805 652.19541,0.0700162654 654.136512,0.0700162654 C655.509286,0.0700162654 656.726089,0.177829929 657.786921,0.393457257 C658.847753,0.609084585 659.636147,0.804333195 660.152104,0.979203087 L658.560857,7.11740953 C658.228422,7.01244206 657.807926,6.90457147 657.299368,6.79379777 C656.790811,6.68302407 656.226184,6.62763722 655.605487,6.62763722 C654.127745,6.62763722 653.085072,6.98176013 652.477468,7.69000597 C651.869863,8.3982518 651.566061,9.40813681 651.566061,10.719661 L651.566061,46.9351473 L643.644318,46.9351473 Z" id="Shape"></path>
                    <path d="M678.128663,47.5997895 C674.852813,47.5997895 672.011917,46.8769712 669.605976,45.4313346 C667.200035,43.9856979 665.337659,41.9644479 664.018849,39.3675844 C662.700038,36.770721 662.040633,33.7440829 662.040633,30.2876702 C662.040633,26.8134973 662.700038,23.7736529 664.018849,21.168137 C665.337659,18.5626212 667.200035,16.5370449 669.605976,15.0914083 C672.011917,13.6457717 674.852813,12.9229533 678.128663,12.9229533 C681.404514,12.9229533 684.245409,13.6457717 686.65135,15.0914083 C689.057291,16.5370449 690.919667,18.5626212 692.238477,21.168137 C693.557288,23.7736529 694.216693,26.8134973 694.216693,30.2876702 C694.216693,33.7440829 693.557288,36.770721 692.238477,39.3675844 C690.919667,41.9644479 689.057291,43.9856979 686.65135,45.4313346 C684.245409,46.8769712 681.404514,47.5997895 678.128663,47.5997895 Z M678.1635,41.2518758 C679.953184,41.2518758 681.442539,40.7607943 682.631563,39.7786312 C683.820587,38.796468 684.710932,37.4747545 685.302598,35.8134905 C685.894264,34.1522265 686.190097,32.2985601 686.190097,30.2524913 C686.190097,28.2007301 685.894264,26.3413144 685.302598,24.6742442 C684.710932,23.007174 683.820587,21.6781742 682.631563,20.6872448 C681.442539,19.6963155 679.953184,19.2008508 678.1635,19.2008508 C676.350819,19.2008508 674.844103,19.6963155 673.643353,20.6872448 C672.442602,21.6781742 671.546394,23.007174 670.954728,24.6742442 C670.363062,26.3413144 670.067229,28.2007301 670.067229,30.2524913 C670.067229,32.2985601 670.363062,34.1522265 670.954728,35.8134905 C671.546394,37.4747545 672.442602,38.796468 673.643353,39.7786312 C674.844103,40.7607943 676.350819,41.2518758 678.1635,41.2518758 Z" id="Shape"></path>
                    <path d="M700.896629,46.9351473 L700.896629,13.3601281 L708.573827,13.3601281 L708.573827,18.9559646 L708.923567,18.9559646 C709.535612,17.0148633 710.589157,15.5153198 712.084204,14.4573342 C713.57925,13.3993486 715.288558,12.8703557 717.212127,12.8703557 C717.649301,12.8703557 718.141863,12.8907914 718.689811,12.9316627 C719.23776,12.972534 719.69537,13.0308808 720.062642,13.1067033 L720.062642,20.372684 C719.718595,20.2647565 719.185902,20.1619521 718.464564,20.0642709 C717.743226,19.9665896 717.051829,19.917749 716.390375,19.917749 C714.938818,19.917749 713.642549,20.2274144 712.501569,20.8467453 C711.360588,21.4660762 710.461477,22.32295 709.804235,23.4173669 C709.146993,24.5117837 708.818372,25.7700842 708.818372,27.1922682 L708.818372,46.9351473 L700.896629,46.9351473 Z" id="Path"></path>
                    <path d="M725.308558,46.9351473 L725.308558,13.3601281 L732.880561,13.3601281 L732.880561,19.0608182 L733.282898,19.0608182 C733.982378,17.1461295 735.137988,15.6444799 736.749728,14.5558693 C738.361468,13.4672586 740.28942,12.9229533 742.533584,12.9229533 C744.806892,12.9229533 746.728241,13.4715848 748.29763,14.5688479 C749.867019,15.6661109 750.970942,17.1634344 751.609399,19.0608182 L751.959139,19.0608182 C752.702336,17.1984994 753.959897,15.7099422 755.731821,14.5951467 C757.503744,13.4803511 759.609469,12.9229533 762.048995,12.9229533 C765.138363,12.9229533 767.656501,13.8985702 769.603409,15.849804 C771.550316,17.8010378 772.52377,20.6492198 772.52377,24.3943499 L772.52377,46.9351473 L764.602027,46.9351473 L764.602027,25.6184392 C764.602027,23.5434531 764.046793,22.0192616 762.936323,21.0458647 C761.825854,20.0724679 760.469132,19.5857695 758.866158,19.5857695 C756.95443,19.5857695 755.465189,20.1795415 754.398438,21.3670857 C753.331686,22.5546299 752.79831,24.0942477 752.79831,25.9859392 L752.79831,46.9351473 L745.034018,46.9351473 L745.034018,25.3038783 C745.034018,23.5697519 744.513792,22.1832021 743.473339,21.1442291 C742.432886,20.105256 741.076221,19.5857695 739.403344,19.5857695 C738.26669,19.5857695 737.231303,19.8757393 736.297184,20.4556789 C735.363064,21.0356185 734.618387,21.8450748 734.063153,22.8840479 C733.507918,23.9230209 733.230301,25.1317408 733.230301,26.5102073 L733.230301,46.9351473 L725.308558,46.9351473 Z" id="Path"></path>
                </g>
            </g>
        </g>
    </g>
</svg>