<?xml version="1.0" encoding="UTF-8"?>
<svg width="776px" height="438px" viewBox="0 0 776 438" version="1.1" xmlns="http://www.w3.org/2000/svg" xmlns:xlink="http://www.w3.org/1999/xlink">
    <title>logo_title_white_edge</title>
    <g id="Page-1" stroke="none" stroke-width="1" fill="none" fill-rule="evenodd">
        <g id="Artboard" fill-rule="nonzero">
            <g id="logo_title_white_edge" transform="translate(-0.000000, 0.000000)">
                <g id="Group" transform="translate(0.000000, 0.000000)">
                    <g transform="translate(113.047395, 0.000000)">
                        <path d="M208.203935,149.85149 C215.189209,161.905227 219.252073,175.813385 219.252073,190.720078 C219.252073,235.725452 182.75758,272.243283 137.780968,272.243283 C92.8043559,272.243283 56.3098626,235.725452 56.3098626,190.720078 C56.3098626,175.813385 60.3727261,161.905227 67.3580002,149.85149 L35.9955451,118.468979 C21.5260488,138.867611 12.9726519,163.759648 12.9726519,190.720078 C12.9726519,259.690278 68.8548447,315.608207 137.780968,315.608207 C206.707091,315.608207 262.589284,259.690278 262.589284,190.720078 C262.589284,163.830972 254.035887,138.867611 239.56639,118.468979 L208.203935,149.85149 L208.203935,149.85149 Z" id="Path" fill="#FFFFFF"></path>
                        <ellipse id="Oval" fill="#1DA24A" cx="137.780968" cy="190.720078" rx="33.5008044" ry="33.5222277"></ellipse>
                        <path d="M137.780968,65.8319492 C101.286474,65.8319492 68.4271749,81.5232047 45.6181166,106.486566 L69.4250712,130.308745 C86.1754733,111.407914 110.552654,99.3541768 137.780968,99.3541768 C165.009281,99.3541768 189.386462,111.33659 206.136864,130.308745 L229.943819,106.486566 C207.134761,81.5232047 174.275461,65.8319492 137.780968,65.8319492 Z" id="Path" fill="#6EBE45"></path>
                        <path d="M137.495854,0 C83.0392278,0 34.0710308,23.3942355 0,60.6966292 L26.1591387,87.5857352 C53.387452,56.7738153 93.0894691,37.2310699 137.424576,37.2310699 C181.759683,37.2310699 221.4617,56.7738153 248.690014,87.5857352 L274.920431,60.6966292 C240.8494,23.3942355 191.881203,0 137.424576,0 L137.495854,0 Z" id="Path" fill="#8EC73F"></path>
                    </g>
                    <polygon id="Path" fill="#FFFFFF" points="69.4963495 436.787494 0 436.787494 0 115.5447 69.4963495 115.5447"></polygon>
                    <polygon id="Path" fill="#FFFFFF" points="402.294765 115.5447 576 115.5447 576 174.600879 523.895557 174.600879 523.895557 436.787494 454.399208 436.787494 454.399208 174.600879 402.294765 174.600879"></polygon>
                    <path d="M170.996659,438 C178.623438,400.911578 211.482737,373.023937 250.828363,373.023937 C290.173988,373.023937 322.96201,400.911578 330.660067,438 L374.567504,438 C366.513055,376.875427 314.194778,329.659013 250.899641,329.659013 C187.604504,329.659013 135.286227,376.875427 127.231778,438 L171.139215,438 L170.996659,438 Z" id="Path" fill="#FFFFFF"></path>
                </g>
                <g id="Group" transform="translate(573.000000, 312.000000)" fill="#FFFFFF">
                    <polygon id="Path" points="2.03083668e-13 0.0713053479 77.813094 0.0713053479 77.813094 23.5307648 28.0813094 23.5307648 28.0813094 48.4163312 70.3819078 48.4163312 70.3819078 71.8757907 28.0813094 71.8757907 28.0813094 100.39793 79.6708905 100.39793 79.6708905 123.857389 0 123.857389 0 0"></polygon>
                    <path d="M104.393875,0.0713053479 L149.1239,0.0713053479 C175.49032,0.0713053479 197.069342,9.19838988 197.069342,38.6474986 C197.069342,68.0966072 175.49032,79.3628522 149.1239,79.3628522 L132.475185,79.3628522 L132.475185,123.928695 L104.393875,123.928695 L104.393875,0.0713053479 L104.393875,0.0713053479 Z M146.837381,57.1155837 C161.6283,57.1155837 169.559662,50.8407131 169.559662,38.6474986 C169.559662,26.4542841 161.6283,22.3185739 146.837381,22.3185739 L132.475185,22.3185739 L132.475185,57.1155837 L146.837381,57.1155837 L146.837381,57.1155837 Z M143.979233,72.0184014 L163.414643,54.1207591 L203,124 L171.560366,124 L143.907779,72.0184014 L143.979233,72.0184014 Z" id="Shape"></path>
                </g>
            </g>
        </g>
    </g>
</svg>